<svg xmlns="http://www.w3.org/2000/svg" viewBox="0 0 951.49 1024">
  <title>logo-animatable</title>
  <g id="cog">
    <path d="M1106.077,548.778l9.232-25.721L1093.256,465.6l-.15-.392-.151-.393L1070.9,407.352l-24.07-12.938L961.48,405.447,812.086,284.309,807.375,170.5l-17.2-21.476L680.911,127.4,655.49,141.238,615.2,236.692,387.911,324.1l-94-44.069-28.15,6.727-66.732,89.177,1.585,27.47,73.912,89.256-29.6,187.471-71.868,49.675-9.232,25.721,22.053,57.461.151.393.15.392,22.059,57.459L232.3,884.17l85.635-11.71L466.4,992.842,471.18,1108.3l17.2,21.475L597.644,1151.4l25.422-13.837,40.814-96.693,225.548-86.738,95.221,44.64,28.151-6.727,66.731-89.177-1.585-27.47-73.214-88.413L1034.9,597.939ZM827.138,790.956,601.652,877.8,414.043,725.52l37.841-238.89,225.487-86.845L864.979,552.066Z" transform="translate(-163.819 -127.402)"/>
  </g>
  <g id="wrench">
    <path d="M538.554,723.205s-48.357,374.961-41.79,384.707l104.171,20.228c9.75-6.563,103.626-372.831,103.626-372.831,29.994-17.856,54.105-48.082,61.43-85.683,9.628-49.344-11.194-97.557-49.066-125.93L696.906,646.3l-61.337,21.15-48.888-42.656,19.94-102.2c-45.652,12.265-83.174,48.841-92.728,97.842C506.528,658.185,517.414,695.373,538.554,723.205Z" transform="translate(-163.819 -127.402)"/>
  </g>
</svg>
