<svg xmlns="http://www.w3.org/2000/svg" viewBox="0 0 951 1024">
  <path class="cog" d="M1106 549l9-26-22-57v-1l-22-58-24-13-86 11-149-121-5-113-17-22-109-22-26 14-40 96-227 87-94-44-28 7-67 89 2 27 74 90-30 187-72 50-9 26 22 57v1l22 57 24 13 86-12 148 121 5 115 17 22 110 21 25-13 41-97 225-87 96 45 28-7 67-89-2-28-73-88 30-189zM827 791l-225 87-188-152 38-239 225-87 188 152z" transform="translate(-164 -127)"/>
  <path class="wrench" d="M539 723l-67 357c6 10 7 15 14 25l124 24c10-6 13-10 23-17l72-357c30-18 54-48 61-85 10-50-11-98-49-126l-20 102-61 21-49-42 20-102c-46 12-84 48-93 97-7 38 3 75 25 103z" transform="translate(-164 -127)"/>
</svg>
