<svg xmlns="http://www.w3.org/2000/svg" viewBox="0 0 975 1027">
  <defs>
    <linearGradient id="linear-gradient-xs47jfi" x1="640" y1="1108" x2="640" y2="174" gradientTransform="rotate(180 640 640)" gradientUnits="userSpaceOnUse">
      <stop offset="0" stop-color="#9a8fb7"/>
      <stop offset="1" stop-color="#8167b2"/>
    </linearGradient>
  </defs>
  <g class="cog" fill="#c6c5d3">
    <path d="M891 638v107l-122 70 116 39 28-9 62-99-4-30-80-78zM84 745V638L4 716l-4 30 62 99 28 9 116-39-122-70zM84 385V278l121-70-115-38-28 8L0 278l4 30 80 77zM891 278v107l80-77 4-30-62-100-28-8-115 38 121 70zM488 44l108 63-21-88-22-19H422l-22 19-21 88 109-63z"/>
  </g>
  <path d="M640 1106l403-233V405L640 172 237 405v468zM420 512l220-128 220 128v254L640 894 420 766z" transform="translate(-152 -128)" fill="url(#linear-gradient-xs47jfi)"/>
  <path d="M381 600l-74 375 18 26 131 26 26-18 73-376c32-18 57-50 65-90 10-52-12-102-51-132l-22 108-64 22-52-45 21-108c-48 13-87 52-97 103-8 40 3 79 26 109z" fill="#8167b2"/>
</svg>
